<svg width="40" height="40" viewBox="0 0 40 40" fill="none" xmlns="http://www.w3.org/2000/svg">
<path d="M16.6667 15.8333C16.6667 16.2936 16.2936 16.6667 15.8333 16.6667C15.3731 16.6667 15 16.2936 15 15.8333C15 15.3731 15.3731 15 15.8333 15C16.2936 15 16.6667 15.3731 16.6667 15.8333Z" stroke="#3378FF" stroke-width="2" stroke-linecap="round" stroke-linejoin="round"/>
<path d="M24.9999 24.1666C24.9999 24.6268 24.6268 24.9999 24.1666 24.9999C23.7063 24.9999 23.3333 24.6268 23.3333 24.1666C23.3333 23.7063 23.7063 23.3333 24.1666 23.3333C24.6268 23.3333 24.9999 23.7063 24.9999 24.1666Z" stroke="#3378FF" stroke-width="2" stroke-linecap="round" stroke-linejoin="round"/>
<path d="M21.7647 7.15755C22.1107 6.93485 22.2837 6.8235 22.424 6.75097C24.1972 5.83413 26.3733 6.67095 27.0753 8.5397C27.1308 8.68755 27.1847 8.88612 27.2923 9.28328C27.342 9.46665 27.3668 9.55834 27.3946 9.64269C27.7309 10.6646 28.5398 11.4614 29.5667 11.7823C29.6514 11.8088 29.7435 11.8322 29.9276 11.8792L30.1775 11.9429C31.0426 12.1634 31.4751 12.2736 31.791 12.4303C33.2267 13.1423 33.9526 14.7753 33.5191 16.3182C33.4237 16.6576 33.2158 17.0526 32.7999 17.8424L32.6797 18.0707C32.5912 18.2388 32.5469 18.3228 32.5098 18.4035C32.06 19.3808 32.1095 20.5151 32.6427 21.4495C32.6867 21.5266 32.7381 21.6065 32.841 21.7662C33.0637 22.1123 33.175 22.2853 33.2475 22.4256C34.1644 24.1988 33.3276 26.3749 31.4588 27.0769C31.311 27.1324 31.1124 27.1862 30.7152 27.2939C30.5319 27.3436 30.4402 27.3684 30.3558 27.3962C29.3339 27.7325 28.5371 28.5414 28.2162 29.5683C28.1898 29.653 28.1663 29.7451 28.1194 29.9292L28.0557 30.1791C27.8351 31.0441 27.7249 31.4767 27.5682 31.7925C26.8562 33.2283 25.2232 33.9542 23.6804 33.5207C23.3409 33.4253 22.946 33.2174 22.1561 32.8015L21.9279 32.6813C21.7598 32.5928 21.6757 32.5485 21.595 32.5114C20.6177 32.0615 19.4834 32.111 18.549 32.6443C18.4719 32.6883 18.392 32.7397 18.2323 32.8426C17.8863 33.0652 17.7133 33.1766 17.573 33.2491C15.7997 34.166 13.6237 33.3292 12.9216 31.4604C12.8661 31.3126 12.8123 31.114 12.7046 30.7168C12.6549 30.5335 12.6301 30.4418 12.6023 30.3574C12.266 29.3355 11.4571 28.5387 10.4302 28.2178C10.3455 28.1913 10.2534 28.1679 10.0693 28.1209L9.81941 28.0572C8.95437 27.8367 8.52186 27.7265 8.20597 27.5698C6.7702 26.8578 6.04434 25.2248 6.47781 23.6819C6.57318 23.3425 6.78114 22.9476 7.19705 22.1577L7.31722 21.9294C7.40574 21.7613 7.44999 21.6773 7.48713 21.5966C7.93697 20.6193 7.88748 19.485 7.35422 18.5506C7.3102 18.4735 7.25879 18.3936 7.15597 18.2339C6.93327 17.8879 6.82192 17.7148 6.74938 17.5745C5.83254 15.8013 6.66936 13.6253 8.53811 12.9232C8.68596 12.8677 8.88454 12.8139 9.28169 12.7062C9.46506 12.6565 9.55675 12.6317 9.6411 12.6039C10.663 12.2676 11.4598 11.4587 11.7807 10.4318C11.8072 10.3471 11.8306 10.255 11.8776 10.0709L11.9413 9.821C12.1618 8.95596 12.272 8.52344 12.4287 8.20756C13.1407 6.77179 14.7737 6.04593 16.3166 6.4794C16.656 6.57477 17.051 6.78273 17.8409 7.19864L18.0691 7.31881C18.2372 7.40732 18.3212 7.45158 18.4019 7.48871C19.3792 7.93856 20.5135 7.88906 21.4479 7.3558C21.525 7.31178 21.6049 7.26037 21.7647 7.15755Z" stroke="#3378FF" stroke-width="2" stroke-linecap="round" stroke-linejoin="round"/>
<path d="M15.8333 24.1666L24.1666 15.8333" stroke="#3378FF" stroke-width="2" stroke-linecap="round" stroke-linejoin="round"/>
</svg>
