<svg width="40" height="40" viewBox="0 0 40 40" fill="none" xmlns="http://www.w3.org/2000/svg">
<path d="M19.8877 13.9715L12.3511 6.4348C11.0493 5.13306 8.93877 5.13306 7.63702 6.43481L6.4627 7.60913C5.15932 8.91251 5.16119 11.0263 6.46688 12.3274L13.9254 19.7595M20.1919 26.0608L27.6717 33.5406C28.9735 34.8423 31.084 34.8423 32.3857 33.5406L33.5643 32.362C34.866 31.0603 34.866 28.9497 33.5643 27.648L26.2215 20.3053M31.7839 27.0709L29.4269 29.4279M28.0127 23.2996L25.6557 25.6566M16.699 11.9859L14.342 14.3429M12.9277 8.21469L10.5707 10.5717M25.8334 9.16661L30.8334 14.1666M32.0614 6.52364L33.4764 7.93862C34.7782 9.24037 34.7782 11.3509 33.4764 12.6527L14.75 31.379C14.3841 31.7449 13.938 32.0206 13.4471 32.1843L6.58121 34.4729C5.92974 34.69 5.30996 34.0703 5.52712 33.4188L7.81575 26.5529C7.97939 26.062 8.25509 25.6159 8.621 25.25L27.3474 6.52363C28.6491 5.22188 30.7597 5.22189 32.0614 6.52364Z" stroke="#FF434E" stroke-width="2" stroke-linecap="round" stroke-linejoin="round"/>
</svg>
