<svg width="40" height="40" viewBox="0 0 40 40" fill="none" xmlns="http://www.w3.org/2000/svg">
<path d="M11.6667 17.5001L7.49986 17.5001C6.57939 17.5001 5.83319 18.2463 5.83319 19.1667V27.5001C5.83319 28.4205 6.57938 29.1667 7.49986 29.1667H12.4999M34.9139 19.4845L31.3027 29.2744C30.7819 30.6864 29.3841 31.5746 27.8854 31.4381C24.609 31.1399 18.8247 30.6034 14.6032 30.158C12.9255 29.981 11.6667 28.5614 11.6667 26.8744V18.4205C11.6667 17.5115 12.0379 16.6419 12.6944 16.0132L21.0877 7.97434C21.2037 7.86325 21.3092 7.74161 21.418 7.62355C22.3144 6.65169 23.7858 6.38122 24.9937 6.99257C26.2758 7.64092 26.8911 9.09387 26.4497 10.4314L24.3233 14.8891C24.0594 15.4421 24.4626 16.0812 25.0754 16.0812H32.1876C33.0546 16.0812 33.8729 16.4695 34.4065 17.1344C34.9389 17.7994 35.1273 18.667 34.9139 19.4845Z" stroke="#9DC82C" stroke-width="2" stroke-linecap="round" stroke-linejoin="round"/>
</svg>
