<svg width="40" height="40" viewBox="0 0 40 40" fill="none" xmlns="http://www.w3.org/2000/svg">
<path d="M33.75 18.75C33.3278 18.7574 32.908 18.8161 32.5 18.925V9.9C32.5 7.60588 31.5887 5.40572 29.9665 3.78353C28.3443 2.16134 26.1441 1.25 23.85 1.25H16.15C13.8559 1.25 11.6557 2.16134 10.0335 3.78353C8.41133 5.40572 7.49999 7.60588 7.49999 9.9V18.925C7.09181 18.817 6.67215 18.7582 6.24999 18.75C5.1549 18.7566 4.09227 19.1225 3.22531 19.7916C2.35836 20.4607 1.73504 21.3959 1.45111 22.4535C1.16717 23.5112 1.23832 24.6328 1.65363 25.6461C2.06894 26.6594 2.80544 27.5083 3.74999 28.0625V37.5C3.74999 37.8315 3.88169 38.1495 4.11611 38.3839C4.35053 38.6183 4.66847 38.75 4.99999 38.75H35C35.3315 38.75 35.6495 38.6183 35.8839 38.3839C36.1183 38.1495 36.25 37.8315 36.25 37.5V28.0625C37.1945 27.5083 37.931 26.6594 38.3463 25.6461C38.7617 24.6328 38.8328 23.5112 38.5489 22.4535C38.2649 21.3959 37.6416 20.4607 36.7747 19.7916C35.9077 19.1225 34.8451 18.7566 33.75 18.75ZM9.99999 9.9C10.0033 8.26993 10.6523 6.70758 11.8049 5.55494C12.9576 4.40231 14.5199 3.7533 16.15 3.75H23.85C25.4801 3.7533 27.0424 4.40231 28.1951 5.55494C29.3477 6.70758 29.9967 8.26993 30 9.9V20.4375C29.9375 20.5125 29.9 20.5875 29.85 20.65C29.764 20.7458 29.6886 20.8506 29.625 20.9625C29.5018 21.1255 29.397 21.3015 29.3125 21.4875C29.2509 21.5962 29.1966 21.709 29.15 21.825C29.0661 22.0287 28.9951 22.2374 28.9375 22.45C28.9375 22.55 28.9375 22.65 28.85 22.7625C28.7625 22.875 28.85 23.075 28.85 23.2375C28.0675 22.7577 27.1679 22.5025 26.25 22.5H13.75C12.8661 22.5205 12.0035 22.775 11.25 23.2375C11.25 23.075 11.25 22.9125 11.25 22.7625C11.25 22.6125 11.0875 22.5 11.0625 22.5C11.0029 22.2921 10.9319 22.0876 10.85 21.8875C10.85 21.7625 10.7375 21.65 10.6875 21.5375C10.6375 21.425 10.5 21.2 10.4 21.0375L10.15 20.7L9.99999 20.4375V9.9ZM28.75 27.5H11.25C11.25 26.837 11.5134 26.2011 11.9822 25.7322C12.4511 25.2634 13.087 25 13.75 25H26.25C26.913 25 27.5489 25.2634 28.0178 25.7322C28.4866 26.2011 28.75 26.837 28.75 27.5ZM5.42499 26.1C4.87447 25.9003 4.41153 25.5137 4.11691 25.0075C3.8223 24.5014 3.71471 23.9079 3.81291 23.3306C3.91112 22.7533 4.20889 22.2288 4.65427 21.8485C5.09966 21.4683 5.6644 21.2564 6.24999 21.25C6.86958 21.2516 7.4665 21.4833 7.92499 21.9C8.18397 22.1337 8.39117 22.4191 8.53325 22.7377C8.67534 23.0563 8.74917 23.4011 8.74999 23.75V36.25H6.24999V27.275C6.24988 27.0181 6.17063 26.7675 6.02301 26.5572C5.87539 26.347 5.66658 26.1873 5.42499 26.1ZM11.25 30H28.75V36.25H11.25V30ZM34.575 26.1C34.3334 26.1873 34.1246 26.347 33.977 26.5572C33.8294 26.7675 33.7501 27.0181 33.75 27.275V36.25H31.25V23.75C31.25 23.087 31.5134 22.4511 31.9822 21.9822C32.4511 21.5134 33.087 21.25 33.75 21.25C34.3356 21.2564 34.9003 21.4683 35.3457 21.8485C35.7911 22.2288 36.0889 22.7533 36.1871 23.3306C36.2853 23.9079 36.1777 24.5014 35.8831 25.0075C35.5885 25.5137 35.1255 25.9003 34.575 26.1Z" fill="#FFA437"/>
<path d="M15 9.99993C15.3315 9.99993 15.6495 9.86823 15.8839 9.63381C16.1183 9.39939 16.25 9.08145 16.25 8.74993C16.248 8.58658 16.2141 8.42521 16.15 8.27493C16.0867 8.12345 15.9979 7.98393 15.8875 7.86243C15.766 7.75202 15.6265 7.66323 15.475 7.59993C15.2474 7.50421 14.9965 7.47805 14.754 7.52477C14.5115 7.57149 14.2883 7.68898 14.1125 7.86243C14.0021 7.98393 13.9133 8.12345 13.85 8.27493C13.7859 8.42521 13.752 8.58658 13.75 8.74993C13.75 9.08145 13.8817 9.39939 14.1161 9.63381C14.3505 9.86823 14.6685 9.99993 15 9.99993Z" fill="#FFA437"/>
<path d="M24.3 9.78742C24.3697 9.83473 24.4453 9.87256 24.525 9.89992C24.5944 9.94467 24.6703 9.9784 24.75 9.99992H25C25.2483 10.0014 25.4914 9.92884 25.6983 9.79159C25.9052 9.65434 26.0665 9.45858 26.1617 9.22928C26.2569 8.99997 26.2817 8.74751 26.2329 8.50407C26.184 8.26064 26.0638 8.03726 25.8875 7.86242C25.7713 7.74526 25.633 7.65227 25.4807 7.58881C25.3284 7.52535 25.165 7.49268 25 7.49268C24.835 7.49268 24.6716 7.52535 24.5193 7.58881C24.367 7.65227 24.2287 7.74526 24.1125 7.86242C24.0021 7.98392 23.9133 8.12344 23.85 8.27492C23.7859 8.4252 23.752 8.58658 23.75 8.74992C23.7546 9.08088 23.8841 9.39788 24.1125 9.63742L24.3 9.78742Z" fill="#FFA437"/>
<path d="M20 15C20.2483 15.0014 20.4914 14.9289 20.6983 14.7917C20.9052 14.6544 21.0665 14.4586 21.1617 14.2293C21.2569 14 21.2817 13.7476 21.2328 13.5041C21.184 13.2607 21.0638 13.0373 20.8875 12.8625C20.6521 12.6271 20.3329 12.4949 20 12.4949C19.6671 12.4949 19.3479 12.6271 19.1125 12.8625C18.8771 13.0979 18.7449 13.4171 18.7449 13.75C18.7449 14.0829 18.8771 14.4021 19.1125 14.6375C19.352 14.8659 19.669 14.9954 20 15Z" fill="#FFA437"/>
<path d="M15 20C15.2891 19.9983 15.5687 19.8965 15.7911 19.7118C16.0136 19.5272 16.1652 19.2711 16.22 18.9873C16.2749 18.7034 16.2297 18.4094 16.0921 18.1551C15.9545 17.9008 15.7331 17.7021 15.4654 17.5928C15.1978 17.4835 14.9005 17.4703 14.6243 17.5555C14.348 17.6408 14.1098 17.8191 13.9503 18.0602C13.7908 18.3013 13.7198 18.5903 13.7493 18.8779C13.7789 19.1654 13.9072 19.4339 14.1125 19.6375C14.352 19.8659 14.669 19.9954 15 20Z" fill="#FFA437"/>
<path d="M25 20C25.2891 19.9983 25.5687 19.8965 25.7911 19.7118C26.0136 19.5272 26.1652 19.2711 26.22 18.9873C26.2749 18.7034 26.2297 18.4094 26.0921 18.1551C25.9545 17.9008 25.7331 17.7021 25.4654 17.5928C25.1978 17.4835 24.9005 17.4703 24.6243 17.5555C24.348 17.6408 24.1098 17.8191 23.9503 18.0602C23.7908 18.3013 23.7198 18.5903 23.7493 18.8779C23.7789 19.1654 23.9072 19.4339 24.1125 19.6375C24.352 19.8659 24.669 19.9954 25 20Z" fill="#FFA437"/>
</svg>
