<svg width="24" height="24" viewBox="0 0 24 24" fill="none" xmlns="http://www.w3.org/2000/svg">
<path d="M20 7H4V17.78C4 18.919 4 19.4885 4.22517 19.9219C4.41492 20.2872 4.71276 20.5851 5.07805 20.7748C5.51153 21 6.08102 21 7.22 21H16.78C17.919 21 18.4885 21 18.9219 20.7748C19.2872 20.5851 19.5851 20.2872 19.7748 19.9219C20 19.4885 20 18.919 20 17.78V7Z" stroke="white" stroke-width="1.2" stroke-linecap="round" stroke-linejoin="round"/>
<path d="M16.4717 3H7.52831C7.21 3 7.05084 3 6.90657 3.04459C6.78413 3.08243 6.6701 3.14346 6.5707 3.22434C6.45356 3.31965 6.36528 3.45208 6.18871 3.71693L4 7H20L17.8113 3.71693C17.6347 3.45208 17.5464 3.31965 17.4293 3.22434C17.3299 3.14346 17.2159 3.08243 17.0934 3.04459C16.9492 3 16.79 3 16.4717 3Z" stroke="white" stroke-width="1.2" stroke-linecap="round" stroke-linejoin="round"/>
<path d="M8 10C9.44434 13.6108 14.5557 13.6108 16 10" stroke="white" stroke-width="1.2" stroke-linecap="round" stroke-linejoin="round"/>
</svg>
