<svg width="75" height="13" viewBox="0 0 75 13" fill="none" xmlns="http://www.w3.org/2000/svg">
<path d="M6.59962 1.42226C6.83833 1.02562 7.41337 1.02562 7.65208 1.42226L9.01329 3.68413C9.09905 3.82663 9.23892 3.92825 9.40094 3.96578L11.9727 4.56141C12.4237 4.66586 12.6014 5.21276 12.298 5.56236L10.5674 7.5559C10.4584 7.68149 10.405 7.84593 10.4194 8.01161L10.6476 10.6416C10.6877 11.1028 10.2224 11.4408 9.79617 11.2602L7.36543 10.2304C7.2123 10.1656 7.0394 10.1656 6.88627 10.2304L4.45553 11.2602C4.02927 11.4408 3.56405 11.1028 3.60408 10.6416L3.83232 8.01161C3.8467 7.84593 3.79328 7.68149 3.68425 7.5559L1.95373 5.56236C1.65026 5.21276 1.82796 4.66586 2.27895 4.56141L4.85076 3.96578C5.01278 3.92825 5.15266 3.82663 5.23841 3.68413L6.59962 1.42226Z" fill="#FFA437"/>
<path d="M21.9539 1.42226C22.1926 1.02562 22.7676 1.02562 23.0063 1.42226L24.3675 3.68413C24.4533 3.82663 24.5932 3.92825 24.7552 3.96578L27.327 4.56141C27.778 4.66586 27.9557 5.21276 27.6522 5.56236L25.9217 7.5559C25.8127 7.68149 25.7592 7.84593 25.7736 8.01161L26.0019 10.6416C26.0419 11.1028 25.5767 11.4408 25.1504 11.2602L22.7197 10.2304C22.5665 10.1656 22.3937 10.1656 22.2405 10.2304L19.8098 11.2602C19.3835 11.4408 18.9183 11.1028 18.9583 10.6416L19.1866 8.01161C19.201 7.84593 19.1475 7.68149 19.0385 7.5559L17.308 5.56236C17.0045 5.21276 17.1822 4.66586 17.6332 4.56141L20.205 3.96578C20.367 3.92825 20.5069 3.82663 20.5927 3.68413L21.9539 1.42226Z" fill="#FFA437"/>
<path d="M52.6625 1.42226C52.9012 1.02562 53.4762 1.02562 53.7149 1.42226L55.0762 3.68413C55.1619 3.82663 55.3018 3.92825 55.4638 3.96578L58.0356 4.56141C58.4866 4.66586 58.6643 5.21276 58.3608 5.56236L56.6303 7.5559C56.5213 7.68149 56.4679 7.84593 56.4822 8.01161L56.7105 10.6416C56.7505 11.1028 56.2853 11.4408 55.859 11.2602L53.4283 10.2304C53.2752 10.1656 53.1023 10.1656 52.9491 10.2304L50.5184 11.2602C50.0921 11.4408 49.6269 11.1028 49.6669 10.6416L49.8952 8.01161C49.9096 7.84593 49.8561 7.68149 49.7471 7.5559L48.0166 5.56236C47.7131 5.21276 47.8908 4.66586 48.3418 4.56141L50.9136 3.96578C51.0756 3.92825 51.2155 3.82663 51.3013 3.68413L52.6625 1.42226Z" fill="#FFA437"/>
<path d="M37.3081 1.42226C37.5468 1.02562 38.1219 1.02562 38.3606 1.42226L39.7218 3.68413C39.8075 3.82663 39.9474 3.92825 40.1094 3.96578L42.6812 4.56141C43.1322 4.66586 43.3099 5.21276 43.0065 5.56236L41.2759 7.5559C41.1669 7.68149 41.1135 7.84593 41.1279 8.01161L41.3561 10.6416C41.3961 11.1028 40.9309 11.4408 40.5047 11.2602L38.0739 10.2304C37.9208 10.1656 37.7479 10.1656 37.5948 10.2304L35.164 11.2602C34.7378 11.4408 34.2725 11.1028 34.3126 10.6416L34.5408 8.01161C34.5552 7.84593 34.5018 7.68149 34.3928 7.5559L32.6622 5.56236C32.3588 5.21276 32.5365 4.66586 32.9875 4.56141L35.5593 3.96578C35.7213 3.92825 35.8612 3.82663 35.9469 3.68413L37.3081 1.42226Z" fill="#FFA437"/>
<path d="M68.0167 1.42226C68.2554 1.02562 68.8305 1.02562 69.0692 1.42226L70.4304 3.68413C70.5162 3.82663 70.656 3.92825 70.8181 3.96578L73.3899 4.56141C73.8409 4.66586 74.0186 5.21276 73.7151 5.56236L71.9846 7.5559C71.8755 7.68149 71.8221 7.84593 71.8365 8.01161L72.0647 10.6416C72.1048 11.1028 71.6395 11.4408 71.2133 11.2602L68.7825 10.2304C68.6294 10.1656 68.4565 10.1656 68.3034 10.2304L65.8726 11.2602C65.4464 11.4408 64.9812 11.1028 65.0212 10.6416L65.2494 8.01161C65.2638 7.84593 65.2104 7.68149 65.1014 7.5559L63.3708 5.56236C63.0674 5.21276 63.2451 4.66586 63.6961 4.56141L66.2679 3.96578C66.4299 3.92825 66.5698 3.82663 66.6555 3.68413L68.0167 1.42226Z" fill="#FFA437"/>
</svg>
